<?xml version="1.0" encoding="utf-8"?>
<!-- Generator: Adobe Illustrator 26.1.0, SVG Export Plug-In . SVG Version: 6.00 Build 0)  -->
<svg version="1.1" id="Layer_1" xmlns="http://www.w3.org/2000/svg" xmlns:xlink="http://www.w3.org/1999/xlink" x="0px" y="0px"
	 viewBox="0 0 281 201" style="enable-background:new 0 0 281 201;" xml:space="preserve">
<style type="text/css">
	.st0{clip-path:url(#SVGID_00000114071427222735803730000001068287185208726943_);}
	.st1{fill:#4C9EEA;}
	.st2{fill:#FFFFFF;}
	.st3{fill:#FFB7B7;}
	.st4{fill:#2F2E41;}
	.st5{fill:#E5E5E5;}
	.st6{fill:#CBCBCB;}
	.st7{fill:#E6E6E6;}
	.st8{fill:#F1F1F1;}
</style>
<g>
	<defs>
		<rect id="SVGID_1_" x="6.3" y="0.8" width="268.4" height="200"/>
	</defs>
	<clipPath id="SVGID_00000041260064107859665230000005970666683765177772_">
		<use xlink:href="#SVGID_1_"  style="overflow:visible;"/>
	</clipPath>
	<g style="clip-path:url(#SVGID_00000041260064107859665230000005970666683765177772_);">
		<path class="st1" d="M152.3,21.2c3.5,0,6.3-2.8,6.3-6.3s-2.8-6.3-6.3-6.3c-3.5,0-6.3,2.8-6.3,6.3S148.8,21.2,152.3,21.2z"/>
		<path class="st2" d="M151.7,17.3c-0.1,0-0.3,0-0.4-0.1l0,0l-1.5-1.1c-0.1-0.1-0.1-0.1-0.2-0.2c0-0.1-0.1-0.2-0.1-0.2
			c0-0.1,0-0.2,0-0.3c0-0.1,0.1-0.2,0.1-0.2c0.1-0.1,0.1-0.1,0.2-0.2c0.1,0,0.2-0.1,0.2-0.1c0.1,0,0.2,0,0.3,0s0.2,0.1,0.2,0.1
			l1,0.7l2.3-3c0.1-0.1,0.1-0.1,0.2-0.2c0.1,0,0.2-0.1,0.2-0.1c0.1,0,0.2,0,0.3,0c0.1,0,0.2,0.1,0.2,0.1v0l0,0l0,0
			c0.1,0.1,0.2,0.3,0.3,0.4c0,0.2,0,0.3-0.1,0.5l-2.7,3.5c-0.1,0.1-0.1,0.1-0.2,0.2C151.9,17.3,151.8,17.3,151.7,17.3L151.7,17.3z"
			/>
		<path class="st1" d="M152.3,64.1c3.5,0,6.3-2.8,6.3-6.3s-2.8-6.3-6.3-6.3c-3.5,0-6.3,2.8-6.3,6.3S148.8,64.1,152.3,64.1z"/>
		<path class="st2" d="M151.7,60.1c-0.1,0-0.3,0-0.4-0.1l0,0l-1.5-1.1c-0.1-0.1-0.1-0.1-0.2-0.2c0-0.1-0.1-0.2-0.1-0.2
			c0-0.1,0-0.2,0-0.3c0-0.1,0.1-0.2,0.1-0.2s0.1-0.1,0.2-0.2c0.1,0,0.2-0.1,0.2-0.1c0.1,0,0.2,0,0.3,0c0.1,0,0.2,0.1,0.2,0.1l1,0.7
			l2.3-3c0.1-0.1,0.1-0.1,0.2-0.2c0.1,0,0.2-0.1,0.2-0.1c0.1,0,0.2,0,0.3,0c0.1,0,0.2,0.1,0.2,0.1v0l0,0l0,0
			c0.1,0.1,0.2,0.3,0.3,0.4c0,0.2,0,0.3-0.1,0.5l-2.7,3.5c-0.1,0.1-0.1,0.1-0.2,0.2C151.9,60.1,151.8,60.1,151.7,60.1L151.7,60.1z"
			/>
		<path class="st3" d="M168.3,124.3c0-0.5,0.1-1,0.3-1.5c0.2-0.5,0.5-0.9,0.9-1.3c0.4-0.4,0.9-0.6,1.4-0.8c0.5-0.2,1-0.2,1.6-0.1
			l5.8-11.4l3.3,5.8l-6,9.9c-0.2,0.9-0.7,1.6-1.4,2.2c-0.7,0.5-1.6,0.8-2.5,0.7c-0.9-0.1-1.7-0.5-2.3-1.1
			C168.6,126.1,168.3,125.2,168.3,124.3L168.3,124.3z"/>
		<path class="st3" d="M195.3,196h-4.6l-2.2-17.6h6.7L195.3,196z"/>
		<path class="st4" d="M196.5,200.5h-14.7v-0.2c0-1.5,0.6-3,1.7-4c1.1-1.1,2.5-1.7,4-1.7h0h9V200.5z"/>
		<path class="st3" d="M220,196h-4.6l-2.2-17.6h6.7L220,196z"/>
		<path class="st4" d="M221.2,200.5h-14.7v-0.2c0-1.5,0.6-3,1.7-4c1.1-1.1,2.5-1.7,4-1.7l0,0h9V200.5z"/>
		<path class="st5" d="M175.2,114.4l-2,3.3c0,0,3.3,0,4,5l2.7-3.3L175.2,114.4z"/>
		<path class="st4" d="M210.1,107.5c0,0,5.3,13.9,6.3,22.5c1,8.6,2.7,31.5,2.7,31.5l3.3,29.5l-9.3,1.3l-4-29.8l-8.9-29.5l-2,29.5
			l-1.7,26.8l-8.6,0.3l-0.7-27.8l-3.6-35.5l2-16.9L210.1,107.5z"/>
		<path class="st3" d="M195.1,65.4c4.6,0,8.3-3.7,8.3-8.3c0-4.6-3.7-8.3-8.3-8.3c-4.6,0-8.3,3.7-8.3,8.3
			C186.9,61.7,190.6,65.4,195.1,65.4z"/>
		<path class="st5" d="M203.6,65.2l3.3,2.3l4.3,43.4l-26.8,0.7l3.6-30.2l3.3-8.6l2.4-3.2L203.6,65.2z"/>
		<path class="st4" d="M204.3,96.4l1-30c0,0,2,0.2,2.6,1.1c0.7,1,11.6,3,11.6,3l-2,30.8c0,0,8.3,24.5,5.3,25.9c-3,1.3-8.3,1-8.3,1
			L204.3,96.4z"/>
		<path class="st4" d="M188.2,92.5l3.5-20.2l-7.8,5.3l2,14.6l-1.7,9.9c0,0-6.3,27.5-4.3,28.5c2,1,4.3,0,4.3,0l4-27.8V92.5z"/>
		<path class="st4" d="M186.2,77l-2.3,0.7l-1,13.3l-1.7,11.6l-8,14.3c0,0,4-2.7,5.6,5l8.8-15.3L186.2,77z"/>
		<path class="st4" d="M202.1,49.2l1.6-0.6c0,0-3.3-3.6-7.8-3.3l1.3-1.4c0,0-3.1-1.3-6,2c-1.5,1.7-3.2,3.8-4.3,6h-1.7l0.7,1.5
			l-2.4,1.5l2.5-0.3c-0.1,0.8-0.2,1.7-0.1,2.6c0.1,0.8,0.5,1.6,1.2,2.2c0,0,1.9-4,1.9-4.6v1.6c0,0,1.6-1.4,1.6-2.3l0.9,1.1l0.4-1.7
			l5.3,1.7l-0.9-1.4l3.3,0.5l-1.3-1.7l5.1,7.1C203.3,59.6,206.2,51.6,202.1,49.2z"/>
		<path class="st3" d="M204.2,121.6c0.1-0.5,0.3-1,0.6-1.5c0.3-0.4,0.7-0.8,1.1-1.1c0.5-0.3,1-0.4,1.5-0.5c0.5-0.1,1.1,0,1.5,0.2
			l7.9-10l2.1,6.3l-7.8,8.6c-0.3,0.8-1,1.5-1.8,1.9c-0.8,0.4-1.7,0.5-2.6,0.2c-0.9-0.2-1.6-0.8-2.1-1.5
			C204.3,123.4,204.1,122.5,204.2,121.6L204.2,121.6z"/>
		<path class="st5" d="M217.7,118.1l-3,3.6l-4-7l1.7-3L217.7,118.1z"/>
		<path class="st4" d="M217,71.7l2.7-1.3c0,0,2,2.7,2.3,5c0.3,2.3,2,5.3,2,7c0,1.7,4.6,17.2,4.6,17.2L218,121c0,0-2.3-8-7.3-8.6
			l8.3-11.6l-4.6-8.3L217,71.7z"/>
		<path class="st6" d="M274.4,200.7H146.8c-0.1,0-0.2,0-0.2-0.1c-0.1-0.1-0.1-0.1-0.1-0.2c0-0.1,0-0.2,0.1-0.2
			c0.1-0.1,0.1-0.1,0.2-0.1h127.5c0.1,0,0.2,0,0.2,0.1c0.1,0.1,0.1,0.1,0.1,0.2c0,0.1,0,0.2-0.1,0.2
			C274.6,200.6,274.5,200.7,274.4,200.7z"/>
		<path class="st2" d="M128.5,71.8H6.3V43.7h122.2V71.8z"/>
		<path class="st1" d="M23.9,53c-0.3,0-0.6,0.1-0.8,0.3c-0.2,0.2-0.3,0.5-0.3,0.8c0,0.3,0.1,0.6,0.3,0.8c0.2,0.2,0.5,0.3,0.8,0.3
			h86.9c0.3,0,0.6-0.1,0.8-0.3c0.2-0.2,0.3-0.5,0.3-0.8c0-0.3-0.1-0.6-0.3-0.8c-0.2-0.2-0.5-0.3-0.8-0.3H23.9z"/>
		<path class="st1" d="M23.9,60.1c-0.2,0-0.3,0-0.5,0.1c-0.1,0.1-0.3,0.1-0.4,0.3c-0.1,0.1-0.2,0.2-0.3,0.4
			c-0.1,0.1-0.1,0.3-0.1,0.5c0,0.2,0,0.3,0.1,0.5c0.1,0.1,0.1,0.3,0.3,0.4c0.1,0.1,0.2,0.2,0.4,0.3c0.1,0.1,0.3,0.1,0.5,0.1h55
			c0.2,0,0.3,0,0.5-0.1c0.1-0.1,0.3-0.1,0.4-0.3c0.1-0.1,0.2-0.2,0.3-0.4c0.1-0.1,0.1-0.3,0.1-0.5c0-0.2,0-0.3-0.1-0.5
			c-0.1-0.1-0.1-0.3-0.3-0.4c-0.1-0.1-0.2-0.2-0.4-0.3c-0.1-0.1-0.3-0.1-0.5-0.1H23.9z"/>
		<path class="st5" d="M128.5,71.8H6.3V43.7h122.2V71.8z M8.3,69.8h118.2V45.7H8.3V69.8z"/>
		<path class="st2" d="M128.5,114.6H6.3V86.5h122.2V114.6z"/>
		<path class="st7" d="M23.9,95.8c-0.3,0-0.6,0.1-0.8,0.3c-0.2,0.2-0.3,0.5-0.3,0.8c0,0.3,0.1,0.6,0.3,0.8c0.2,0.2,0.5,0.3,0.8,0.3
			h86.9c0.3,0,0.6-0.1,0.8-0.3c0.2-0.2,0.3-0.5,0.3-0.8c0-0.3-0.1-0.6-0.3-0.8c-0.2-0.2-0.5-0.3-0.8-0.3H23.9z"/>
		<path class="st7" d="M23.9,103c-0.2,0-0.3,0-0.5,0.1c-0.1,0.1-0.3,0.1-0.4,0.3s-0.2,0.2-0.3,0.4c-0.1,0.1-0.1,0.3-0.1,0.5
			c0,0.2,0,0.3,0.1,0.5c0.1,0.1,0.1,0.3,0.3,0.4c0.1,0.1,0.2,0.2,0.4,0.3c0.1,0.1,0.3,0.1,0.5,0.1h55c0.2,0,0.3,0,0.5-0.1
			c0.1-0.1,0.3-0.1,0.4-0.3c0.1-0.1,0.2-0.2,0.3-0.4c0.1-0.1,0.1-0.3,0.1-0.5c0-0.2,0-0.3-0.1-0.5c-0.1-0.1-0.1-0.3-0.3-0.4
			c-0.1-0.1-0.2-0.2-0.4-0.3c-0.1-0.1-0.3-0.1-0.5-0.1H23.9z"/>
		<path class="st5" d="M128.5,114.6H6.3V86.5h122.2V114.6z M8.3,112.6h118.2V88.5H8.3V112.6z"/>
		<path class="st2" d="M129.5,28.9H7.3V0.8h122.2V28.9z"/>
		<path class="st1" d="M24.9,10.1c-0.3,0-0.6,0.1-0.8,0.3c-0.2,0.2-0.3,0.5-0.3,0.8s0.1,0.6,0.3,0.8c0.2,0.2,0.5,0.3,0.8,0.3h86.9
			c0.3,0,0.6-0.1,0.8-0.3c0.2-0.2,0.3-0.5,0.3-0.8s-0.1-0.6-0.3-0.8c-0.2-0.2-0.5-0.3-0.8-0.3H24.9z"/>
		<path class="st1" d="M24.9,17.3c-0.3,0-0.6,0.1-0.8,0.3c-0.2,0.2-0.3,0.5-0.4,0.8c0,0.3,0.1,0.6,0.3,0.8c0.2,0.2,0.5,0.3,0.8,0.4
			h55c0.2,0,0.3,0,0.5-0.1s0.3-0.1,0.4-0.3c0.1-0.1,0.2-0.2,0.3-0.4c0.1-0.1,0.1-0.3,0.1-0.5s0-0.3-0.1-0.5
			c-0.1-0.1-0.1-0.3-0.3-0.4c-0.1-0.1-0.2-0.2-0.4-0.3c-0.1-0.1-0.3-0.1-0.5-0.1H24.9z"/>
		<path class="st5" d="M129.5,28.9H7.3V0.8h122.2V28.9z M9.3,26.9h118.2V2.8H9.3V26.9z"/>
		<path class="st8" d="M253.7,200.8v-24.2C253.7,176.6,263.2,193.8,253.7,200.8z"/>
		<path class="st8" d="M254.3,200.8l-17.8-16.4C236.5,184.4,255.5,189.1,254.3,200.8z"/>
		<path class="st1" d="M168.4,123.6c3.5,0,6.3-2.8,6.3-6.3c0-3.5-2.8-6.3-6.3-6.3c-3.5,0-6.3,2.8-6.3,6.3
			C162.1,120.8,164.9,123.6,168.4,123.6z"/>
		<path class="st2" d="M167.8,119.7c-0.1,0-0.3,0-0.4-0.1l0,0l-1.5-1.1c-0.1-0.1-0.1-0.1-0.2-0.2c0-0.1-0.1-0.2-0.1-0.2
			c0-0.1,0-0.2,0-0.3c0-0.1,0.1-0.2,0.1-0.2c0.1-0.1,0.1-0.1,0.2-0.2c0.1,0,0.2-0.1,0.2-0.1c0.1,0,0.2,0,0.3,0
			c0.1,0,0.2,0.1,0.2,0.1l1,0.7l2.3-3c0.1-0.1,0.1-0.1,0.2-0.2c0.1,0,0.2-0.1,0.2-0.1c0.1,0,0.2,0,0.3,0c0.1,0,0.2,0.1,0.2,0.1h0
			l0,0l0,0c0.1,0.1,0.2,0.3,0.3,0.4c0,0.2,0,0.4-0.1,0.5l-2.7,3.5c-0.1,0.1-0.1,0.1-0.2,0.2C168,119.7,167.9,119.7,167.8,119.7
			L167.8,119.7z"/>
	</g>
</g>
</svg>
