<?xml version="1.0" encoding="utf-8"?>
<!-- Generator: Adobe Illustrator 26.1.0, SVG Export Plug-In . SVG Version: 6.00 Build 0)  -->
<svg version="1.1" id="Layer_1" xmlns="http://www.w3.org/2000/svg" xmlns:xlink="http://www.w3.org/1999/xlink" x="0px" y="0px"
	 viewBox="0 0 281 201" style="enable-background:new 0 0 281 201;" xml:space="preserve">
<style type="text/css">
	.st0{clip-path:url(#SVGID_00000110430533524962251430000006957610089475853715_);}
	.st1{fill:#F0F0F0;}
	.st2{fill:#FFFFFF;}
	.st3{fill:#3F3D56;}
	.st4{fill:#FFB6B6;}
	.st5{fill:#E4E4E4;}
	.st6{fill:#2F2E41;}
	.st7{fill:#4C9EEA;}
	.st8{fill:#CACACA;}
	.st9{fill:#9F616A;}
</style>
<g>
	<defs>
		<rect id="SVGID_1_" x="22.3" y="0.8" width="236.5" height="200"/>
	</defs>
	<clipPath id="SVGID_00000156555458159318054800000015203055675057077649_">
		<use xlink:href="#SVGID_1_"  style="overflow:visible;"/>
	</clipPath>
	<g style="clip-path:url(#SVGID_00000156555458159318054800000015203055675057077649_);">
		<path class="st1" d="M148.7,28.9c7.8-5.8,18.9-8,27.5-3.5c-9.7,4.2-17.6,11.8-22.4,21.3c-1.8,3.7-3.4,7.9-7.1,9.6
			c-2.3,1.1-5,0.9-7.4,0c-2.4-0.9-4.5-2.3-6.6-3.7l-0.6-0.1C135.8,43.5,140.9,34.7,148.7,28.9z"/>
		<path class="st2" d="M176.2,25.6c-8.1,0.3-15.9,3-22.2,8c-1.4,1-2.6,2.3-3.6,3.7c-0.9,1.4-1.5,3-1.6,4.7c-0.1,1.6,0,3.2-0.5,4.7
			c-0.3,0.8-0.7,1.5-1.2,2.1c-0.6,0.6-1.2,1.1-2,1.4c-1.9,0.8-3.9,1-5.9,1c-2.2,0.1-4.6,0.1-6.6,1.1c-0.2,0.1-0.4-0.3-0.2-0.4
			c3.5-1.8,7.7-0.6,11.4-1.7c1.7-0.5,3.3-1.5,4-3.3c0.6-1.5,0.5-3.2,0.6-4.8c0.1-1.7,0.5-3.3,1.4-4.7c0.9-1.5,2.1-2.8,3.5-3.8
			c3-2.5,6.4-4.4,10.1-5.8c4.2-1.6,8.6-2.5,13-2.7C176.5,25.2,176.5,25.6,176.2,25.6L176.2,25.6z"/>
		<path class="st2" d="M155.9,31.9c-0.7-1.2-0.9-2.6-0.7-3.9c0.2-1.3,1-2.6,2-3.4c0.2-0.2,0.5,0.2,0.3,0.3c-1,0.8-1.7,1.9-1.9,3.2
			c-0.2,1.3,0,2.5,0.6,3.6C156.4,31.9,156.1,32.1,155.9,31.9L155.9,31.9z"/>
		<path class="st2" d="M148.7,41.2c2.7,0.8,5.6,0.5,8.1-0.8c0.2-0.1,0.4,0.3,0.2,0.4c-2.6,1.3-5.6,1.6-8.4,0.8
			C148.3,41.5,148.5,41.1,148.7,41.2z"/>
		<path class="st2" d="M167.4,26.8c0.2,0.5,0.5,1,0.9,1.3c0.4,0.4,0.9,0.6,1.4,0.8c0.3,0.1,0.1,0.5-0.1,0.4
			c-0.6-0.2-1.1-0.5-1.5-0.9c-0.4-0.4-0.8-0.9-1-1.5c0-0.1,0-0.1,0-0.2c0-0.1,0.1-0.1,0.1-0.1c0.1,0,0.1,0,0.2,0
			C167.3,26.7,167.3,26.7,167.4,26.8L167.4,26.8z"/>
		<path class="st1" d="M183.1,57.7c-0.2,0-0.3-0.1-0.5-0.1c-2.3-0.5-4.6-0.9-6.9-1c-0.2,0-0.4,0-0.5,0c-5.6-0.3-11.2,0.4-16.5,2.1
			c-2.1,0.7-4.2,1.5-6.2,2.5c-2.8,1.4-5.6,3.1-8.6,3.5c-0.3,0-0.6,0.1-0.9,0.1l-11-11.5c0,0,0-0.1,0-0.1l-0.5-0.4
			c0.1-0.1,0.2-0.1,0.3-0.2c0.1,0,0.1-0.1,0.2-0.1c0,0,0.1,0,0.1-0.1c0,0,0,0,0,0c0,0,0.1,0,0.1-0.1c0.6-0.3,1.2-0.7,1.8-1
			c0,0,0,0,0,0c4.5-2.5,9.2-4.6,14.1-5.9c0.1,0,0.3-0.1,0.4-0.1c2.2-0.6,4.5-1,6.7-1.2c1.2-0.1,2.5-0.2,3.8-0.2
			c3.2,0,6.4,0.6,9.5,1.6c6.1,2.1,11.5,6.1,14.4,11.7C183,57.4,183.1,57.6,183.1,57.7z"/>
		<path class="st2" d="M182.9,57.8c-6.6-4.7-14.5-7.1-22.6-7c-1.7,0-3.5,0.2-5.1,0.8c-1.6,0.6-3,1.5-4.1,2.8c-1,1.2-2,2.5-3.3,3.4
			c-0.7,0.5-1.4,0.8-2.3,0.9c-0.8,0.1-1.6,0.1-2.4-0.1c-2-0.4-3.7-1.6-5.3-2.8c-1.8-1.3-3.7-2.7-5.9-3.1c-0.3,0-0.2-0.5,0.1-0.4
			c3.9,0.7,6.5,4.1,10.1,5.5c1.7,0.6,3.6,0.8,5.2-0.2c1.4-0.8,2.4-2.2,3.4-3.4c1-1.3,2.4-2.3,3.9-2.9c1.6-0.6,3.3-0.9,5.1-1
			c3.9-0.1,7.8,0.3,11.6,1.4c4.3,1.2,8.3,3.1,12,5.7C183.5,57.7,183.2,58,182.9,57.8L182.9,57.8z"/>
		<path class="st2" d="M163,50.6c0.2-1.4,0.8-2.6,1.8-3.5c1-0.9,2.3-1.5,3.7-1.5c0.3,0,0.3,0.4,0,0.4c-1.3,0-2.5,0.5-3.4,1.4
			c-0.9,0.9-1.5,2-1.7,3.3C163.4,51,163,50.9,163,50.6L163,50.6z"/>
		<path class="st2" d="M151.6,53.8c1.7,2.2,4.2,3.7,6.9,4.2c0.3,0,0.2,0.5-0.1,0.4c-2.9-0.5-5.4-2.1-7.2-4.4
			C151.1,53.8,151.4,53.5,151.6,53.8L151.6,53.8z"/>
		<path class="st2" d="M175.2,53.5C175,54,175,54.5,175,55c0.1,0.5,0.3,1,0.6,1.5c0.2,0.2-0.2,0.5-0.4,0.2c-0.4-0.5-0.6-1-0.7-1.6
			c-0.1-0.6-0.1-1.2,0.1-1.8c0-0.1,0-0.1,0.1-0.1c0,0,0.1,0,0.2,0c0.1,0,0.1,0,0.1,0.1C175.2,53.3,175.2,53.4,175.2,53.5L175.2,53.5
			z"/>
		<path class="st3" d="M146.7,37.5h-0.8V14.3c0-1.8-0.3-3.5-1-5.2c-0.7-1.6-1.7-3.1-2.9-4.4c-1.2-1.2-2.7-2.2-4.4-2.9s-3.4-1-5.2-1
			H83.1c-1.8,0-3.5,0.3-5.2,1c-1.6,0.7-3.1,1.7-4.4,2.9s-2.2,2.7-2.9,4.4c-0.7,1.6-1,3.4-1,5.2v127.6c0,3.6,1.4,7,3.9,9.5
			s5.9,3.9,9.5,3.9h49.3c3.6,0,7-1.4,9.5-3.9c2.5-2.5,3.9-5.9,3.9-9.5V54.1h0.8V37.5z"/>
		<path class="st2" d="M132.9,4.3h-6.4c0.3,0.7,0.4,1.5,0.3,2.3s-0.3,1.5-0.8,2.2c-0.4,0.6-1,1.2-1.7,1.6c-0.7,0.4-1.5,0.6-2.2,0.6
			H93.8c-0.8,0-1.6-0.2-2.2-0.6c-0.7-0.4-1.3-0.9-1.7-1.6c-0.4-0.6-0.7-1.4-0.8-2.2c-0.1-0.8,0-1.6,0.3-2.3h-6
			c-2.7,0-5.2,1.1-7.1,2.9c-1.9,1.9-2.9,4.4-2.9,7.1v127.4c0,1.3,0.3,2.6,0.8,3.8c0.5,1.2,1.2,2.3,2.2,3.3c0.9,0.9,2,1.7,3.3,2.2
			c1.2,0.5,2.5,0.8,3.8,0.8h49.5c1.3,0,2.6-0.3,3.8-0.8c1.2-0.5,2.3-1.2,3.3-2.2c0.9-0.9,1.7-2,2.2-3.3c0.5-1.2,0.8-2.5,0.8-3.8
			V14.4c0-2.7-1.1-5.2-2.9-7.1C138.1,5.4,135.6,4.3,132.9,4.3z"/>
		<path class="st1" d="M109.1,110.9c-3.6,0-7.3-0.7-10.6-2.1c-3.4-1.4-6.4-3.4-9-6c-2.6-2.6-4.6-5.6-6-9c-1.4-3.4-2.1-7-2.1-10.6
			c0-5.1,1.4-10.1,4.1-14.5c2.7-4.4,6.5-7.9,11.1-10.2c3.3-1.7,6.9-2.7,10.6-3s7.4,0.2,10.9,1.4c6.2,2.1,11.5,6.4,14.9,12
			s4.6,12.3,3.6,18.8c-1.1,6.5-4.4,12.4-9.4,16.6C122,108.6,115.7,110.9,109.1,110.9L109.1,110.9z M109.1,56.5
			c-4.2,0-8.4,1-12.1,2.9c-3.3,1.7-6.2,4-8.5,6.8c-2.3,2.8-4.1,6.1-5.1,9.7c-1,3.5-1.3,7.2-0.8,10.9c0.5,3.6,1.7,7.1,3.7,10.3
			c1.9,3.1,4.5,5.8,7.5,7.9c3,2.1,6.4,3.6,10,4.3c3.6,0.7,7.3,0.7,10.9-0.1c3.6-0.8,7-2.3,10-4.4c1.4-1,2.8-2.2,4-3.5
			c3.5-3.8,5.8-8.6,6.7-13.7c0.9-5.1,0.2-10.4-1.9-15.1c-2.1-4.7-5.5-8.8-9.8-11.6C119.4,58,114.3,56.5,109.1,56.5z"/>
		<path class="st4" d="M49,58.5c0.8,0.1,1.5,0.4,2.1,0.8c0.6,0.4,1.2,1,1.6,1.6c0.4,0.6,0.7,1.4,0.8,2.1c0.1,0.8,0,1.5-0.2,2.3
			l9.2,7.7l-3.3,6.7l-12.9-11c-1.2-0.5-2.2-1.4-2.8-2.5c-0.6-1.1-0.7-2.5-0.4-3.7c0.3-1.3,1.1-2.3,2.2-3.1
			C46.4,58.6,47.7,58.3,49,58.5L49,58.5z"/>
		<path class="st5" d="M135.1,90.5c-0.2-2-0.9-5.6-1.6-6.9c-2-5.2-14.9-9.5-16.6-10.1l-0.4-4.9l-17.9-1.9L96.3,73l-6.4,2.4
			c-0.4,0.2-0.8,0.4-1.2,0.8c-0.3,0.3-0.6,0.7-0.7,1.2L82.2,79l-5.7,1.6L56.8,66.8l-0.9,0.6l-6.2,4.1l-1,0.6l25.6,23.1l9.5-2.2
			l7.1-1.7l0.6,2.5l-1.6,8.7c4.6,4.6,10.6,7.4,17.1,7.9c6.4,0.5,12.9-1.3,18.1-5.1l4.1-3.6c2.8-3.1,4.9-6.7,6.1-10.7L135.1,90.5z"/>
		<path class="st4" d="M113.1,62.8c6.8-2.2,10.4-9.5,8.2-16.3c-2.2-6.8-9.5-10.4-16.3-8.2c-6.8,2.2-10.4,9.5-8.2,16.3
			C99.1,61.4,106.4,65,113.1,62.8z"/>
		<path class="st6" d="M98.9,35.9c1.3-1.8,3.1-3,5.3-3.5c2.1-0.4,4.3,0,6.1,1.1c2-0.8,4.1-1.3,6.2-1.1c2.1,0.3,4.1,1.4,5.1,3.4
			c0.2,0.5,0.5,1,0.7,1.4c0.9,1.1,2.4,1.3,3.8,1.3c-0.7,0.4-1.4,0.8-2.1,1.2c0.7,0.3,1.4,0.7,2.1,1c-1,0.4-1.9,0.7-2.9,1.1
			c2.2,2,2.8,5.5,1.9,8.4c-0.8,2.8-2.6,5.1-4.7,7.1c-0.4-1.5,0-3.1,0.3-4.7c0.3-1.6,0.4-3.5-0.8-4.7c-0.8-0.8-1.9-1-3-1.2
			c-5.4-1-10.8-1.6-16.3-1.9c-0.7-0.1-1.5,0-2.2,0.2c-1.3,0.6-1.9,2.2-2.2,3.6c-0.2-2.5,0-5.1,0.4-7.5
			C97.2,39.3,97.8,37.4,98.9,35.9z"/>
		<path class="st7" d="M115.6,124h-15.2c-0.5,0-1-0.2-1.4-0.6c-0.4-0.4-0.6-0.9-0.6-1.4s0.2-1,0.6-1.4c0.4-0.4,0.9-0.6,1.4-0.6h15.2
			c0.5,0,1,0.2,1.4,0.6c0.4,0.4,0.6,0.9,0.6,1.4s-0.2,1-0.6,1.4C116.7,123.8,116.2,124,115.6,124z"/>
		<path class="st7" d="M65.6,17.2H23.7c-0.4,0-0.8-0.2-1-0.4c-0.3-0.3-0.4-0.6-0.4-1c0-0.4,0.2-0.8,0.4-1c0.3-0.3,0.6-0.4,1-0.4
			h41.9c0.4,0,0.8,0.2,1,0.4c0.3,0.3,0.4,0.6,0.4,1s-0.2,0.8-0.4,1C66.4,17,66,17.2,65.6,17.2z"/>
		<path class="st7" d="M89.8,26.5H23.7c-0.4,0-0.8-0.2-1-0.4c-0.3-0.3-0.4-0.6-0.4-1c0-0.4,0.2-0.8,0.4-1c0.3-0.3,0.6-0.4,1-0.4
			h66.1c0.4,0,0.8,0.2,1,0.4c0.3,0.3,0.4,0.6,0.4,1c0,0.4-0.2,0.8-0.4,1C90.6,26.3,90.2,26.5,89.8,26.5z"/>
		<path class="st8" d="M77.1,35.3H23.7c-0.4,0-0.8-0.2-1-0.4c-0.3-0.3-0.4-0.6-0.4-1c0-0.4,0.2-0.8,0.4-1c0.3-0.3,0.6-0.4,1-0.4
			h53.4c0.4,0,0.8,0.2,1,0.4c0.3,0.3,0.4,0.6,0.4,1c0,0.4-0.2,0.8-0.4,1C77.9,35.1,77.5,35.3,77.1,35.3z"/>
		<path class="st8" d="M53.8,44H23.7c-0.4,0-0.8-0.2-1-0.4c-0.3-0.3-0.4-0.6-0.4-1c0-0.4,0.2-0.8,0.4-1c0.3-0.3,0.6-0.4,1-0.4h30.1
			c0.4,0,0.8,0.2,1,0.4c0.3,0.3,0.4,0.6,0.4,1c0,0.4-0.2,0.8-0.4,1C54.6,43.9,54.2,44,53.8,44z"/>
		<path class="st8" d="M70.5,52.8H23.7c-0.4,0-0.8-0.2-1-0.4c-0.3-0.3-0.4-0.6-0.4-1s0.2-0.8,0.4-1c0.3-0.3,0.6-0.4,1-0.4h46.7
			c0.4,0,0.8,0.2,1,0.4c0.3,0.3,0.4,0.6,0.4,1s-0.2,0.8-0.4,1C71.2,52.6,70.9,52.7,70.5,52.8z"/>
		<path class="st9" d="M202.2,195.4h-3.8l-1.8-14.5l5.5,0L202.2,195.4z"/>
		<path class="st6" d="M203.7,200.5l-14.3,0v-0.2c0-1.5,0.6-2.9,1.6-3.9c1-1,2.5-1.6,3.9-1.6l0,0l2.6-2l4.9,2l1.3,0V200.5z"/>
		<path class="st9" d="M200,127.3l-1.7-20.2l-1.3-7.6l7.3-1.6l2.4,10.4l-2.1,19.6c0.4,0.5,0.7,1.2,0.7,1.8c0.1,0.7-0.1,1.3-0.4,1.9
			c-0.3,0.6-0.8,1.1-1.4,1.4c-0.6,0.3-1.3,0.4-1.9,0.3c-0.7-0.1-1.3-0.4-1.8-0.8s-0.9-1-1-1.7c-0.2-0.6-0.2-1.3,0.1-2
			C199.1,128.2,199.5,127.7,200,127.3L200,127.3z"/>
		<path class="st9" d="M182.3,195.4h-3.8l-1.8-14.5l5.5,0V195.4z"/>
		<path class="st6" d="M176.3,131.8l-1.7,2.9c0,0-1.8,0.5-1.2,6.5c0.6,6,0.6,41.3,3.5,45.6l0.5,3.7l5.5,0.5l0.1-3.3l6.5-46
			c0,0,3.8,45.2,7,46.3l1.1,3.8l5,0l-0.3-4.4l0.3-56L176.3,131.8z"/>
		<path class="st5" d="M174.4,134.5l-0.1,0c3.4-12.9,2.4-29.5,0-47.4V87l8.8-8h7.6l7.6,4.9c4.9,2.4,6,7.6,6,7.7l0,0l-3,10.4
			l2.3,30.2l0,0l0,0c-0.7,1.8-2.7,1.6-4.9,1.3c-2.3-0.3-10.6,2.5-13.1,2.5C180.5,136,174.8,134.6,174.4,134.5z"/>
		<path class="st5" d="M196.7,87.9l3.3-1.4l4.3,5.3l3.5,16.9l-12-1.8L196.7,87.9z"/>
		<path class="st9" d="M146.4,119.2l15-13.7l5.2-5.7l5.7,4.8l-6.7,8.3l-16.8,10.3c-0.2,0.7-0.5,1.2-1,1.7c-0.5,0.5-1.1,0.8-1.8,0.9
			c-0.7,0.1-1.3,0-2-0.3c-0.6-0.3-1.1-0.7-1.5-1.3c-0.3-0.6-0.5-1.2-0.5-1.9c0-0.7,0.3-1.3,0.7-1.9c0.4-0.5,1-0.9,1.6-1.2
			C145,119,145.7,119,146.4,119.2L146.4,119.2z"/>
		<path class="st5" d="M161,105.6l4.1-5.4c0-0.1,3.5-7.8,6.5-11.1c3.1-3.4,5.5-1.7,5.5-1.7l0.1,0l0.2,12.6l-11.5,13.7L161,105.6z"/>
		<path class="st9" d="M193.1,71.4c0.6-3.8-2-7.4-5.8-8c-3.8-0.6-7.4,2-8,5.8c-0.6,3.8,2,7.4,5.8,8
			C188.9,77.8,192.4,75.2,193.1,71.4z"/>
		<path class="st6" d="M179.8,69.3c0,0-0.1-2.5-0.4-3.5c-0.3-1.1-0.9-2-0.6-2s0.5-0.8,0.5-0.8s0.3-0.2,0.5,0
			c0.2,0.2,0.3-1.1,0.3-1.1s0.2-0.5,0.3-0.2c0.2,0.3,0.2,0.2,0.3-0.3c0.2-0.5,0.9-0.8,0.9-0.8s2.9,0.2,3.4-0.5
			c0.5-0.6,5.7-0.2,6.8,0.6c1.1,0.8,5.9,3.6,5.1,5.9c-0.8,2.3-3,7.7-3.6,8.2c-0.9,0.8-1.5,1.2-5.7,2c-0.8,0.2-5-2.5-5-3
			s0.5-1.9-0.3-2.1c-1.2-0.3-1.4,1.2-1.7,0.8C180.4,72.1,179.8,69.3,179.8,69.3z"/>
		<path class="st6" d="M183.8,200.5l-14.3,0v-0.2c0-1.5,0.6-2.9,1.6-3.9c1-1,2.5-1.6,3.9-1.6h0l2.6-2l4.9,2l1.3,0L183.8,200.5z"/>
		<path class="st8" d="M258.3,200.8H23.5c-0.1,0-0.2,0-0.3-0.1c-0.1-0.1-0.1-0.2-0.1-0.3s0-0.2,0.1-0.3c0.1-0.1,0.2-0.1,0.3-0.1
			h234.8c0.1,0,0.2,0,0.3,0.1c0.1,0.1,0.1,0.2,0.1,0.3s0,0.2-0.1,0.3C258.5,200.8,258.4,200.8,258.3,200.8z"/>
	</g>
</g>
</svg>
