<svg width="281" height="201" viewBox="0 0 281 201" fill="none" xmlns="http://www.w3.org/2000/svg">
<g clip-path="url(#clip0_900_3224)">
<path d="M256.379 180.739C258.839 185.088 256.753 199.775 256.753 199.775C256.753 199.775 243.092 193.993 240.632 189.646C239.453 187.558 239.152 185.087 239.794 182.777C240.436 180.467 241.969 178.507 244.056 177.326C246.143 176.146 248.613 175.843 250.924 176.482C253.235 177.122 255.197 178.654 256.379 180.739V180.739Z" fill="#F1F1F1"/>
<path d="M256.951 199.757L256.661 199.818C253.865 186.538 244.104 177.532 244.006 177.443L244.205 177.224C244.304 177.314 254.135 186.381 256.951 199.757Z" fill="white"/>
<path d="M278.732 185.691C275.394 191.747 256.572 199.951 256.572 199.951C256.572 199.951 253.469 179.655 256.806 173.601C258.409 170.694 261.102 168.542 264.291 167.62C267.481 166.697 270.906 167.08 273.814 168.683C276.721 170.286 278.873 172.979 279.795 176.169C280.718 179.358 280.335 182.784 278.732 185.691Z" fill="#F1F1F1"/>
<path d="M256.738 200.17L256.456 199.873C270.075 186.938 273.601 168.898 273.635 168.718L274.038 168.794C274.004 168.976 270.457 187.142 256.738 200.17Z" fill="white"/>
<path d="M66.1949 139.836C64.041 139.828 61.8964 139.551 59.8115 139.01L59.4006 138.896L59.0194 138.705C45.2379 131.795 33.6112 122.669 24.4622 111.578C16.8887 102.344 10.9841 91.8587 7.01383 80.5951C2.26602 67.1097 -0.0181453 52.8805 0.270382 38.5867C0.276204 38.2867 0.281131 38.055 0.281131 37.8954C0.281131 30.9471 4.13798 24.8504 10.1069 22.3634C14.6752 20.4599 56.1533 3.42322 59.1502 2.19227C64.7941 -0.635717 70.8152 1.72468 71.7788 2.13745C73.9401 3.0211 112.284 18.7042 120.57 22.6498C129.11 26.7163 131.388 34.0216 131.388 37.6971C131.388 54.3369 128.506 69.8881 122.823 83.9187C118.233 95.2756 111.727 105.76 103.589 114.916C87.8881 132.585 72.183 138.849 72.0314 138.904C70.1545 139.55 68.1797 139.865 66.1949 139.836ZM62.5016 130.687C63.8632 130.992 66.998 131.45 69.0412 130.705C71.6369 129.758 84.7818 122.942 97.0653 109.119C114.037 90.0197 122.648 66.0106 122.661 37.7584C122.631 37.1861 122.224 33.1037 116.818 30.5295C108.693 26.6602 68.8373 10.3634 68.4356 10.1992L68.3255 10.1525C67.4903 9.80247 64.8322 9.06525 62.9999 10.0254L62.633 10.1965C62.1888 10.3789 18.1593 28.4627 13.4636 30.4193C10.1788 31.7879 9.00838 35.1786 9.00838 37.8954C9.00838 38.094 9.00324 38.3828 8.99599 38.756C8.6207 58.0872 13.0941 105.655 62.5016 130.687Z" fill="#4C9EEA"/>
<path d="M60.9754 6.16012C60.9754 6.16012 16.5458 24.408 11.7855 26.3915C7.02515 28.3749 4.64499 33.1353 4.64499 37.8956C4.64499 42.6559 1.07476 104.772 60.9754 134.805C60.9754 134.805 66.412 136.309 70.5367 134.805C74.6613 133.3 127.025 107.912 127.025 37.6972C127.025 37.6972 127.025 30.5568 118.694 26.5898C110.364 22.6229 70.0869 6.16012 70.0869 6.16012C70.0869 6.16012 65.1407 3.97831 60.9754 6.16012Z" fill="white"/>
<path d="M58.6828 86.9551L44.4033 68.5948L52.7074 62.1363L59.4687 70.8294L82.3095 46.7178L89.9475 53.9544L58.6828 86.9551Z" fill="#4C9EEA"/>
<path d="M280.409 200.823H149.93C149.839 200.823 149.752 200.787 149.687 200.722C149.623 200.658 149.587 200.571 149.587 200.48C149.587 200.389 149.623 200.302 149.687 200.238C149.752 200.174 149.839 200.138 149.93 200.138H280.409C280.5 200.138 280.587 200.174 280.651 200.238C280.715 200.302 280.752 200.389 280.752 200.48C280.752 200.571 280.715 200.658 280.651 200.722C280.587 200.787 280.5 200.823 280.409 200.823Z" fill="#CACACA"/>
<path d="M187.647 195.424L192.943 195.423L195.463 174.994L187.646 174.994L187.647 195.424Z" fill="#FFB8B8"/>
<path d="M186.296 193.695L196.727 193.694H196.727C198.49 193.694 200.181 194.395 201.427 195.641C202.674 196.888 203.374 198.579 203.375 200.341V200.557L186.296 200.558L186.296 193.695Z" fill="#2F2E41"/>
<path d="M205.456 195.424L210.752 195.423L213.272 174.994L205.455 174.994L205.456 195.424Z" fill="#FFB8B8"/>
<path d="M204.104 193.695L214.535 193.694H214.536C216.298 193.694 217.989 194.395 219.236 195.641C220.482 196.888 221.183 198.579 221.183 200.341V200.557L204.105 200.558L204.104 193.695Z" fill="#2F2E41"/>
<path d="M195.972 123.682L197.242 188.494L186.965 187.856L179.835 146.575L177.583 118.428L195.972 123.682Z" fill="#2F2E41"/>
<path d="M213.61 112.799L215.051 189.521L203.064 189.179L200.475 143.572L195.972 127.06L177.583 118.428L180.585 97.7874L207.606 97.4121L213.61 112.799Z" fill="#2F2E41"/>
<path d="M192.945 44.1206C198.021 44.1206 202.136 40.0056 202.136 34.9295C202.136 29.8533 198.021 25.7383 192.945 25.7383C187.869 25.7383 183.754 29.8533 183.754 34.9295C183.754 40.0056 187.869 44.1206 192.945 44.1206Z" fill="#FFB8B8"/>
<path d="M200.569 47.9932L201.977 50.126L205.73 60.6339L202.727 101.54L185.089 101.916L182.837 55.0045L187.554 49.1086L200.569 47.9932Z" fill="#CCCCCC"/>
<path d="M175.706 56.1302L172.704 55.7549C172.704 55.7549 171.953 56.1302 171.578 58.7572C171.203 61.3842 166.699 84.652 166.699 84.652L172.704 113.174L179.459 104.167L175.331 88.4049L179.459 72.6428L175.706 56.1302Z" fill="#2F2E41"/>
<path d="M213.986 55.7549H216.237L221.867 86.1528L216.613 109.796L211.359 101.164L212.86 91.7823L212.109 83.5261L209.482 78.647L213.986 55.7549Z" fill="#2F2E41"/>
<path d="M198.376 34.93L196.705 34.5122C196.705 34.5122 195.452 27.41 192.528 28.2455C189.603 29.0811 182.083 29.9167 182.083 26.5744C182.083 23.2321 189.185 20.3077 193.363 20.7255C197.541 21.1432 202.877 22.5292 204.225 28.6633C206.388 38.4965 199.764 40.9802 199.764 40.9802L199.875 40.6222C200.181 39.6281 200.202 38.5683 199.938 37.5624C199.673 36.5565 199.132 35.6447 198.376 34.93Z" fill="#2F2E41"/>
<path d="M173.079 55.7552L185.089 50.8765L187.903 48.8124L196.347 86.1535L200.288 47.6865L215.862 55.7552L210.608 81.2748L209.857 91.0323L212.109 98.9133C212.109 98.9133 219.99 104.543 217.363 110.547C214.736 116.552 211.734 116.927 211.734 116.927C211.734 116.927 198.974 104.918 198.224 101.916C197.473 98.9133 196.347 93.6593 196.347 93.6593C196.347 93.6593 189.967 117.678 182.462 117.302C174.956 116.927 174.956 109.046 174.956 109.046L176.832 100.79L179.835 92.1581L178.333 77.8972L173.079 55.7552Z" fill="#2F2E41"/>
</g>
<defs>
<clipPath id="clip0_900_3224">
<rect width="280.504" height="200" fill="white" transform="translate(0.248047 0.822266)"/>
</clipPath>
</defs>
</svg>
